# xmcd
#
# Track frame offsets:
#	150
#	16307
#	29657
#	47250
#	64535
#	82745
#	102930
#	123210
#	143147
#	162412
#	178682
#
# Disc length: 2566 seconds
#
# Revision: 0
# Processed by: cddbd v1.5PL3 Copyright (c) Steve Scherf et al.
# Submitted via: dBpowerAMP V4.0
#
DISCID=820a040b
DTITLE=Albert Carey Project - Ten Cents Short of a Dime
DYEAR=1900
DGENRE=
TTITLE0=Done Broke Down
TTITLE1=Ten Cents Short of a Dime
TTITLE2=Big Red Fire Engine
TTITLE3=Empty Pages
TTITLE4=Solitary Man
TTITLE5=Too Blue to Sing the Blues
TTITLE6=Catch a Ride
TTITLE7=Thinkin' With Your Heart
TTITLE8=Blame It on the Night
TTITLE9=Evil, Evil
TTITLE10=She's The One
EXTD=Genre may be wrong.... 
EXTT0=
EXTT1=
EXTT2=
EXTT3=
EXTT4=
EXTT5=
EXTT6=
EXTT7=
EXTT8=
EXTT9=
EXTT10=
PLAYORDER=
